/* XPM */
static char * mutt_xpm[] = {
"32 32 10 1",
" 	c None",
".	c #000000",
"+	c #808080",
"@	c #C0C0C0",
"#	c #BFBF00",
"$	c #FFFFFF",
"%	c #BF00BF",
"&	c #FF0000",
"*	c #FF00FF",
"=	c #BF0000",
"                                ",
"                       ..+      ",
"                     ..         ",
"                    .@@++       ",
"                   .@#@.        ",
"        .          .@#@.  ...   ",
"       .          +.@#@. .++    ",
"     +.           .+@+@...@+    ",
"     .@+         +.@@@@@@@.     ",
"     .@.         .+@@@@.@.      ",
"     .@.        +.@@@@@.@.      ",
"     .@.+       .+@@@@@@@@....+ ",
"     .@+.      +.@@@@@@@@@.$$%. ",
"     .@@.......&++@@@@@@@@.@*%. ",
"     ++@+.===.+=&++@@@@@@@.%%.. ",
"      .@@+...+@+=&+++@@@@@@...+ ",
"      .@@@@@@@@@+=&.+++@@@@.+.  ",
"     +++@@@@@@@@@+=&..++@@@.@.  ",
"     .++@@@@@@@@@@+==..++@+.+.  ",
"     .++@@@@@@@@@@@+==..... .   ",
"     .++@@@@@@@@@@@@+.          ",
"     .++@@@@+@+@@@@+.           ",
"     +.+@@+.+++@@@+..           ",
"      .@@+.+++.@@+.+.           ",
"     ++@+......+@.++.           ",
"    +.@@.+++. .+@.+@.           ",
"    .+@@...+...+@@..++.+        ",
"    .+@@@@@.++.+@@@@@.+@+       ",
" + +.+@@@@@.++.+@@@@@.+@.       ",
"+ + .++@+@@.++.++@+@@.+@.       ",
" + ++......+..+......+..+       ",
"                                "};
