/* XPM */
static char * icon_xpm[] = {
"54 54 257 2",
"  	c None",
". 	c #4B3B90",
"+ 	c #0D0E54",
"@ 	c #110E5B",
"# 	c #170F63",
"$ 	c #1D1369",
"% 	c #21146C",
"& 	c #251471",
"* 	c #28116C",
"= 	c #260D63",
"- 	c #220B5E",
"; 	c #1C0B5A",
"> 	c #1C0B52",
", 	c #1B0553",
"' 	c #16064D",
") 	c #160549",
"! 	c #110448",
"~ 	c #130445",
"{ 	c #130542",
"] 	c #14105E",
"^ 	c #2C1573",
"/ 	c #2B1B75",
"( 	c #341672",
"_ 	c #31136E",
": 	c #220957",
"< 	c #1B064D",
"[ 	c #150B42",
"} 	c #130C55",
"| 	c #2E1B78",
"1 	c #331F7C",
"2 	c #341878",
"3 	c #3B1C75",
"4 	c #2E1067",
"5 	c #1B0747",
"6 	c #180B46",
"7 	c #151362",
"8 	c #1A1564",
"9 	c #341F77",
"0 	c #401E80",
"a 	c #421B7A",
"b 	c #3B1574",
"c 	c #2B0B5B",
"d 	c #220752",
"e 	c #37277A",
"f 	c #472484",
"g 	c #39156E",
"h 	c #37116A",
"i 	c #341363",
"j 	c #23196E",
"k 	c #291970",
"l 	c #3C2C82",
"m 	c #443185",
"n 	c #49348A",
"o 	c #50268A",
"p 	c #3D1B6E",
"q 	c #310E5C",
"r 	c #2B0D53",
"s 	c #22074A",
"t 	c #523C92",
"u 	c #583C94",
"v 	c #5D4497",
"w 	c #5C2E92",
"x 	c #673395",
"y 	c #422875",
"z 	c #290A4F",
"A 	c #6C4A9E",
"B 	c #7254A7",
"C 	c #8C6DB2",
"D 	c #34246E",
"E 	c #3A236A",
"F 	c #3A1C67",
"G 	c #240A4B",
"H 	c #151861",
"I 	c #766FA5",
"J 	c #AD91CC",
"K 	c #9889D3",
"L 	c #453B86",
"M 	c #3C3579",
"N 	c #363175",
"O 	c #322D6B",
"P 	c #322963",
"Q 	c #301F62",
"R 	c #32185E",
"S 	c #27074B",
"T 	c #20286C",
"U 	c #1E1D68",
"V 	c #9A82BB",
"W 	c #C8B3D3",
"X 	c #B3AFE7",
"Y 	c #8472C6",
"Z 	c #5857A3",
"` 	c #3F3C8A",
" .	c #3B3A84",
"..	c #41397D",
"+.	c #3D397A",
"@.	c #372E6E",
"#.	c #2C215A",
"$.	c #2E1B5B",
"%.	c #F5EFF5",
"&.	c #65669A",
"*.	c #474B8E",
"=.	c #3C447B",
"-.	c #444280",
";.	c #453E81",
">.	c #403C81",
",.	c #3D3374",
"'.	c #3B306E",
").	c #382D69",
"!.	c #30265D",
"~.	c #2C155A",
"{.	c #1F1C70",
"].	c #251E71",
"^.	c #595C91",
"/.	c #4D5389",
"(.	c #4C4984",
"_.	c #484585",
":.	c #494185",
"<.	c #494081",
"[.	c #2F1C53",
"}.	c #2B2876",
"|.	c #32317F",
"1.	c #54528B",
"2.	c #514E89",
"3.	c #4E4B8C",
"4.	c #4C4786",
"5.	c #463D7E",
"6.	c #43367A",
"7.	c #2B1355",
"8.	c #473D8D",
"9.	c #57578E",
"0.	c #483E7F",
"a.	c #463A7D",
"b.	c #423575",
"c.	c #403471",
"d.	c #BFCBFA",
"e.	c #B8A8DD",
"f.	c #5E6092",
"g.	c #56558C",
"h.	c #4B4482",
"i.	c #45397B",
"j.	c #433878",
"k.	c #3F326D",
"l.	c #3D3069",
"m.	c #3A2E63",
"n.	c #362A5C",
"o.	c #342455",
"p.	c #301E4D",
"q.	c #493C82",
"r.	c #5E4F8C",
"s.	c #563B8B",
"t.	c #540785",
"u.	c #423472",
"v.	c #97A4F7",
"w.	c #443676",
"x.	c #7D79D5",
"y.	c #46408A",
"z.	c #444B82",
"A.	c #410777",
"B.	c #7161C1",
"C.	c #303979",
"D.	c #8E8EE6",
"E.	c #40338B",
"F.	c #4A458C",
"G.	c #463A80",
"H.	c #362954",
"I.	c #302248",
"J.	c #423775",
"K.	c #2E1D63",
"L.	c #7983EA",
"M.	c #747BE4",
"N.	c #6D76D6",
"O.	c #6A71CE",
"P.	c #6669C6",
"Q.	c #6265BC",
"R.	c #5F60B5",
"S.	c #5B5BAC",
"T.	c #535398",
"U.	c #4F4FA4",
"V.	c #544DA4",
"W.	c #32046B",
"X.	c #303579",
"Y.	c #312243",
"Z.	c #5A5BB7",
"`.	c #484680",
" +	c #454175",
".+	c #4B3182",
"++	c #473C84",
"@+	c #3E356E",
"#+	c #2F2640",
"$+	c #2B233A",
"%+	c #26195C",
"&+	c #25155A",
"*+	c #5551B3",
"=+	c #3C2D5D",
"-+	c #392F56",
";+	c #372D50",
">+	c #251F30",
",+	c #241D43",
"'+	c #201356",
")+	c #413B6C",
"!+	c #444296",
"~+	c #21005E",
"{+	c #443672",
"]+	c #44366F",
"^+	c #423668",
"/+	c #3F3461",
"(+	c #3C325A",
"_+	c #342A4A",
":+	c #211B21",
"<+	c #221C63",
"[+	c #2D015E",
"}+	c #201B25",
"|+	c #492F7B",
"1+	c #43346C",
"2+	c #322945",
"3+	c #1C104F",
"4+	c #221763",
"5+	c #371E6B",
"6+	c #42326E",
"7+	c #443369",
"8+	c #423365",
"9+	c #1E1A1E",
"0+	c #16014C",
"a+	c #1C1154",
"b+	c #25035B",
"c+	c #41316A",
"d+	c #221F78",
"e+	c #272467",
"f+	c #1D165E",
"g+	c #130551",
"h+	c #402F64",
"i+	c #11074E",
"j+	c #0C054B",
"k+	c #221E57",
"l+	c #1A0D4D",
"m+	c #160B4D",
"n+	c #060447",
"o+	c #040343",
"p+	c #3B2765",
"q+	c #0E0341",
"r+	c #11064A",
"s+	c #0E0446",
"t+	c #11053B",
"u+	c #0D013A",
"v+	c #03053F",
"w+	c #0F0F4C",
"x+	c #02073B",
"y+	c #0D0346",
"z+	c #0B023F",
"A+	c #0D0234",
"B+	c #0A0E44",
"C+	c #161452",
"D+	c #0B0446",
"E+	c #0A0344",
"F+	c #1D2157",
"G+	c #091040",
"H+	c #181E53",
"                                                                                                            ",
"                                                                                                            ",
"                                                                                                            ",
"      . . . . . . . . . . . . . . . . . . . . . . . . . . . . . . . . . . . . . . . . . . . . . . . .       ",
"      . + + + + @ @ # # # # $ % % & & & & & & & * * * * * * = = - - ; ; ; ; > , ' ' ' ) ! ~ ~ { { { .       ",
"      . + + @ @ ] ] # # $ $ % & ^ / / ^ ^ ^ ^ ^ ^ ^ ^ ( _ * * = = = - - - : , , < < ' ) ) ~ ~ { { [ .       ",
"      . + } ] ] ] # $ $ % & & / | | 1 1 2 2 2 2 2 2 2 3 ( _ _ 4 4 = = = = - : , , < < < ) ) ~ ~ 5 6 .       ",
"      . + @ ] 7 8 $ $ % & ^ / 9 1 1 0 0 0 0 0 0 0 a a 0 a b ( _ _ 4 4 4 4 c : : d d < < < ) ) 5 5 6 .       ",
"      . @ ] 7 8 $ % % & / | 1 e 0 0 f f f f f f f 0 f f a a b b g h h g i c c : : d d < < 5 5 5 5 5 .       ",
"      . @ ] 7 $ j k k | 1 e l m n o o o o o o o o o o o f a a b b g g p i q c c r d d s s s s 5 5 5 .       ",
"      . ] 7 8 % j / 1 l l n t u v u u w w w w w x x x o f y 3 3 p p p p h i q c c r d z z z s 5 5 5 .       ",
"      . ] 7 $ j j | l n t v A B B B A x A A C C B t m l e e D D D D E F i i i q q r r r r G s s 5 5 .       ",
"      . H 8 % j k 9 m u B I C C C C B C J K B t L M M N N N N O O O P Q Q R R q q q q q r S s s 5 5 .       ",
"      . T U j k | e n v I V W W W J J X Y Z `  ...+.+.+.+.M M N N @.O P P #.$.R R R R r z S s s s 5 .       ",
"      . T T j k 9 l t A C W %.%.%.%.X Y &.*.=.-.-.-.;.>.....+.+.M ,.'.@.).P !.#.$.Q ~.r z S s s s s .       ",
"      . T {.]./ e m u B C W %.%.%.%.J I ^./.(._._._.:.<.;.;.....+.M ,.,.'.).P !.#.[.~.r z z S s G G .       ",
"      . T {.].}.|.n u B C J %.%.%.W C &.^.1.2.2.3.4._.:.<.;.5.....6.M ,.,.'.).P !.#.[.7.r z S S G G .       ",
"      . }.}.}.|. .8.u A C J %.%.W V I &.^.9.1.2.2.4.4.:.<.0.5.a...6.6.b.c.c.'.).P !.[.[.7.z z S G G .       ",
"      . |.l l l m n w x B W d.e.V I &.f.^.9.g.1.2.2.4.h.<.0.5.a.i.6.j.b.b.c.k.l.m.n.o.p.[.r z z z G .       ",
"      . ].e q.r.s.s.o t.C d.K C &.f.f.^.9.9.g.g.1.2.(.h.<.0.5.a.i.i.j.b.u.c.k.k.l.m.n.o.p.7.r z z z .       ",
"      . % k 9 m s.v v A e.v.Y &./.9.9.g.g.g.g.g.1.2.(.h.<.0.0.a.i.i.w.b.u.u.c.k.l.m.n.o.p.[.7.r r 7..       ",
"      . $ * ( 3 0 o v V d.x.B y.z.2.1.1.1.1.g.1.2.2.(.h.<.0.5.a.a.i.w.b.b.u.c.k.k.l.m.n.o.p.7.7.7.7..       ",
"      . $ * _ b a A.t.J v.B.t C.-.4.3.2.1.1.1.1.2.2.4.h.<.0.5.a.a.i.j.w.b.u.c.c.k.l.m.n.o.p.[.~.7.7..       ",
"      . $ * _ b 3 A.w d.D.B E.+._.F.3.3.3.2.2.2.2.4.4.:.<.q.G.G.a.a.i.j.w.b.c.c.k.l.m.m.H.I.[.$.~.7..       ",
"      . = * _ ( b A.A d.x.v |.>.y.F.F.3.3.3.3.3.4.4.:.:.q.q.G.G.a.a.i.j.J.b.c.c.k.k.l.m.H.I.p.K.~.~..       ",
"      . L.L.M.M.M.M.L.v.L.M.N.N.N.N.N.N.N.N.N.N.O.O.O.O.O.P.P.P.P.P.P.Q.Q.Q.Q.Q.R.R.R.S.Z Z T.U.V.U..       ",
"      . % * ( 3 b W.V d.B.t X.>.y.F.F.F.F.F.F.F.:.:.:.q.q.q.G.G.a.i.j.j.J.J.b.c.c.k.l.m.H.I.Y.Q $.~..       ",
"      . P.P.P.P.P.P.D.v.x.P.Z.Q.Q.Q.Q.Q.Q.Q.Q.R.R.R.R.R.R.S.S.S.S.S.S.Z Z Z Z Z T.T.T.3.3.`. +F.8.` .       ",
"      . ..G.<..+.+.+J d.B.n X.>.L y.y.y.y.:.:.++++q.q.G.G.a.a.i.i.j.j.J.J.J.c.@+k.l.m.n.H.#+$+K.%+&+.       ",
"      . L.L.L.M.M.M.D.v.L.M.N.N.N.N.N.N.N.N.O.O.O.O.O.O.P.P.P.P.P.P.Q.Q.Q.Q.Q.R.R.R.S.Z Z T.T.*+U.U..       ",
"      . ; - = 4 W., B d.B.n }.M >.L L L ++++++G.G.G.G.a.a.i.i.j.j.J.J.J.u.@+@+l.m.=+-+;+I.>+,+/ &+'+.       ",
"      . Z.Z.Z.Z.Z.*+P.v.M.P.Z.Z.R.R.R.R.R.R.R.R.R.S.S.S.S.S.S.S.Z Z Z Z Z Z T.T.T.3.3.(.`.)+-.!+` ` .       ",
"      . ; ; - = 4 ~+t.d.x.u D @.M 6.....i.i.6.6.6.6.w.w.w.{+{+{+{+{+]+)+^+^+/+(+-+;+_+#+>+:+#.<+'+'+.       ",
"      . ; ; - = = ~+[+V v.v y O ,.,.b.6.6.6.w.w.b.w.{+{+{+{+]+]+]+]+)+^+/+/+(+-+;+_+#+$+}+:+].&+'+'+.       ",
"      . } ; ; = 4 D |+C d.Q..+D @.,.,.b.b.b.b.b.u.u.u.u.]+1+1+1+^+^+^+/+/+(+-+;+_+2+$+>+}+,+].'+'+3+.       ",
"      . } ; 4+D h.&.q..+e.L.s.5+P '.c.c.u.u.u.u.u.6+1+1+1+7+7+^+^+8+/+/+(+-+;+_+2+#+$+}+9+<+4+'+'+3+.       ",
"      . <+N f.I r.D 4 0+s.d.R.|+#.).'.k.c.6+6+6+6+6+1+1+7+7+7+8+8+/+/+(+-+;+_+2+#+$+>+9+,+U a+'+a+3+.       ",
"      . I I ..K.&+- b+, [+J v.t F !.).l.k.k.k.6+c+c+c+7+7+8+8+/+/+(+(+-+;+_+2+#+$+>+}+>+d+a+a+a+3+3+.       ",
"      . e+f+; > ; : : b+g+a X x.|+R P m.l.c+c+c+c+c+8+8+8+h+/+/+(+-+-+;+_+2+#+$+>+}+9+].f+3+3+a+3+3+.       ",
"      . } i+i+g+, > : : , j+|+X B.y [.n.m.m.h+l.h+h+h+h+h+/+=+(+-+;+;+_+2+#+$+>+}+9+k+f+3+l+l+3+3+3+.       ",
"      . j+j+i+i+g+, , d d b+y I X P.y [.o.n.m.m.h+h+h+h+=+=+-+-+;+_+2+#+#+$+>+}+:+e+8 l+m+m+l+l+3+3+.       ",
"      . n+n+j+i+i+' , > &+@.f.4 y J x.y o.p.n.=+=+=+=+=+-+-+;+;+_+2+#+$+>+}+}+>+].f+m+) ) m+m+m+l+3+.       ",
"      . o+n+j+j+i+i+' '+@.I K.0+0+F C D.v p+p.o.H.H.H.H.H._+_+I.#+$+>+}+}+}+,+{.a+m+) ~ ~ ~ 6 6 6 l+.       ",
"      . o+n+n+j+j+i+a+@+I %+d , d , [+6+K K . p+o.I.Y.Y.Y.Y.$+>+>+}+:+>+,+{.8 m+m+) ~ ~ q+q+{ [ 6 6 .       ",
"      . o+o+o+n+j+m+'.I %+l+< < , , , c E s.A B V.@.!.[.p.,+,+,+,+,+<+{.8 l+m+r+! s+~ q+t+u+t+[ [ [ .       ",
"      . v+v+o+n+w+e+&.%+m+) ' ' ' ' > &+K.~.b+~.K.9 1 k 4+4+4+4+$ f+a+l+m+r+! s+q+q+q+t+u+u+u+t+[ [ .       ",
"      . x+v+v+w+e+r.a+r+! ! r+r+r+' > %+%+> < < < > > > > > > > m+m+' r+! y+s+q+q+z+u+u+u+u+A+t+t+[ .       ",
"      . x+x+B+e+1.C+D+E+D+D+y+! ! r+> &+'+' ' ' ' ' ' ' ' ' ' ' r+! y+y+y+q+q+z+z+u+u+u+u+A+A+A+t+t+.       ",
"      . x+B+F+(.C+o+o+o+o+n+E+D+D+r+a+'+m+! ! r+! ! ! ! ! ! ! s+y+y+E+q+q+z+z+u+u+u+u+A+A+A+A+A+A+A+.       ",
"      . G+H+=.w+v+v+v+v+o+o+o+E+E+r+C+m+s+y+s+s+s+s+y+y+y+y+E+y+E+E+z+z+z+z+u+u+u+u+A+A+A+A+A+A+A+A+.       ",
"      . . . . . . . . . . . . . . . . . . . . . . . . . . . . . . . . . . . . . . . . . . . . . . . .       ",
"                                                                                                            ",
"                                                                                                            ",
"                                                                                                            "};
